<?xml version="1.0" encoding="UTF-8"?>
<svg xmlns="http://www.w3.org/2000/svg" viewBox="0 0 1600 520">
  <defs>
    <linearGradient id="bg" x1="0" y1="0" x2="1" y2="1">
      <stop offset="0%" stop-color="#0b1730"/>
      <stop offset="55%" stop-color="#121f3d"/>
      <stop offset="100%" stop-color="#0a1225"/>
    </linearGradient>
    <linearGradient id="lineUp" x1="0" y1="0" x2="1" y2="0">
      <stop offset="0%" stop-color="#48d5ff" stop-opacity="0.85"/>
      <stop offset="100%" stop-color="#6d7bff" stop-opacity="0.9"/>
    </linearGradient>
    <linearGradient id="coin" x1="0" y1="0" x2="1" y2="1">
      <stop offset="0%" stop-color="#f59e0b"/>
      <stop offset="100%" stop-color="#f97316"/>
    </linearGradient>
    <filter id="glow" x="-20%" y="-20%" width="140%" height="140%">
      <feGaussianBlur stdDeviation="5" result="blur"/>
      <feMerge>
        <feMergeNode in="blur"/>
        <feMergeNode in="SourceGraphic"/>
      </feMerge>
    </filter>
  </defs>

  <rect width="1600" height="520" fill="url(#bg)"/>

  <g opacity="0.2" stroke="#48d5ff" stroke-width="1">
    <path d="M0 80h1600M0 160h1600M0 240h1600M0 320h1600M0 400h1600"/>
    <path d="M120 0v520M320 0v520M520 0v520M720 0v520M920 0v520M1120 0v520M1320 0v520M1520 0v520"/>
  </g>

  <path d="M0 380 L120 360 L240 372 L360 340 L480 350 L600 290 L720 305 L840 240 L960 255 L1080 205 L1200 220 L1320 165 L1440 180 L1600 140"
        fill="none" stroke="url(#lineUp)" stroke-width="5" filter="url(#glow)"/>
  <path d="M0 420 L120 430 L240 405 L360 415 L480 382 L600 390 L720 360 L840 368 L960 338 L1080 346 L1200 320 L1320 332 L1440 300 L1600 278"
        fill="none" stroke="#34d399" stroke-opacity="0.75" stroke-width="3"/>

  <g opacity="0.75">
    <rect x="1110" y="248" width="16" height="52" rx="3" fill="#ef4444"/>
    <rect x="1162" y="220" width="16" height="80" rx="3" fill="#34d399"/>
    <rect x="1214" y="196" width="16" height="104" rx="3" fill="#34d399"/>
    <rect x="1266" y="232" width="16" height="68" rx="3" fill="#ef4444"/>
    <rect x="1318" y="172" width="16" height="128" rx="3" fill="#34d399"/>
    <rect x="1370" y="190" width="16" height="110" rx="3" fill="#34d399"/>
    <rect x="1422" y="214" width="16" height="86" rx="3" fill="#ef4444"/>
  </g>

  <g transform="translate(132,112)">
    <circle cx="0" cy="0" r="72" fill="url(#coin)" opacity="0.9"/>
    <circle cx="0" cy="0" r="72" fill="none" stroke="#fde68a" stroke-opacity="0.45" stroke-width="3"/>
    <text x="0" y="20" text-anchor="middle" font-size="64" font-family="Arial, sans-serif" font-weight="700" fill="#fff">BTC</text>
  </g>

  <g transform="translate(300,118)" fill="#dbeafe" opacity="0.9" font-family="Arial, sans-serif">
    <text x="0" y="0" font-size="34" font-weight="700">CRYPTO x US EQUITIES</text>
    <text x="0" y="34" font-size="18" fill="#93c5fd">Market Pulse Dashboard</text>
  </g>
</svg>
